<svg xmlns="http://www.w3.org/2000/svg" viewBox="0 0 1498.85 357.74"><defs><style>.cls-1{fill:#24b6af;}.cls-2{fill:#243645;}.cls-3{fill:#142341;}.cls-4{fill:#1f5dcd;}</style></defs><g id="Layer_2" data-name="Layer 2"><g id="Layer_1-2" data-name="Layer 1"><path class="cls-1" d="M185.89,0c5.21,3.36,9.43,7.37,8.82,14.28a13,13,0,0,1-25.1,3.65,13.21,13.21,0,0,1,5-15.84C175.7,1.37,176.8.7,177.9,0Z"/><path class="cls-2" d="M179,357.12a135.56,135.56,0,0,1-17.77-3.3,139.8,139.8,0,0,1-57.71-29.27c-3.21-2.73-5.63-2.83-9.27-1.48-18.58,6.91-37.46,12.67-57.4,14.12A57.24,57.24,0,0,1,16,335.39C3.81,331.72-2,321.56.62,309.07c1.87-8.85,6.4-16.37,11.75-23.42,9.38-12.36,20.46-23.08,32.43-33.6,2.57,8.11,4.69,15.8,8,23.05,1.06,2.32-.71,3.32-2,4.54-9.18,8.75-17.69,18.09-24.66,28.73-1,1.49-2.74,3.09-1.92,4.9,1,2.12,3.44,1.69,5.38,1.62,13.13-.45,25.46-4.66,37.78-8.6,50.29-16.06,97-39.91,142.47-66.32a905.21,905.21,0,0,0,91.89-60.84c4-3.06,4.29-5.5,2.48-9.8-14.37-34.18-38.9-57.43-74-69.27-5.33-1.79-9.32-4.53-10.3-10.27-1.65-9.78,6.92-16.65,16.92-13.5a141.65,141.65,0,0,1,54.3,31.57c15.35,14.24,26.81,31.19,35.36,51.25,7.92-7.48,15.6-14.54,23.05-21.85,5.11-5,10-10.25,13.83-16.37,1.1-1.76,2.82-3.79,1.66-5.92s-3.66-1.1-5.52-1a135.65,135.65,0,0,0-34.17,6.61c-4.41,1.45-7,1.06-9.84-3-3.74-5.44-8.49-10.18-13.22-15.7,21.91-6.54,43.21-14.89,66.43-10.94,16.43,2.8,23.52,15.18,18.29,31-4.94,14.95-15,26.57-25.68,37.58-23.89,24.61-51.32,44.92-79.54,64.16a969.37,969.37,0,0,1-152,85.16c-1.16.52-2.29,1.11-4,1.95a111.75,111.75,0,0,0,39.88,18.77c69.86,17.6,139.37-31.28,146.13-103.06.74-7.81,3.06-13.26,9.83-17.22,4.13-2.42,7.64-5.88,11.49-8.8.83-.63,1.54-2.06,2.89-1.31,1,.55.62,1.8.69,2.74,2.54,39.06-7.83,74.21-32.94,104.38-20.51,24.63-47.56,40.21-78.35,48.18-11.92,3.08-23.5,3.31-35.69,3.31A95.69,95.69,0,0,1,179,357.12Z"/><path class="cls-3" d="M1498.85,278.8h-62.93c-1,0-2,0-3,0-.75,0-1.79.27-1.9-.95s.86-1.18,1.67-1.19a8.91,8.91,0,0,0,5.13-1.68c3.56-2.58,4.21-6.33,1.55-10.52-7.85-12.34-15.79-24.62-23.7-36.92-1.86.24-2.31,1.84-3.12,3q-12,16.29-23.82,32.65c-5.2,7.17-3.19,11.94,5.66,13.5.66.11,1.3.15,1.53,1-.22,1.81-1.71,1.17-2.69,1.17q-21,.07-42,0c-1.11,0-3.18.85-3.18-1.06s2.07-1,3.2-1.09A26,26,0,0,0,1369.8,266c12.14-15.84,24.12-31.81,36.29-47.63,1.6-2.08,1.61-3.41.2-5.58-11.33-17.42-22.49-34.94-33.76-52.4-4.33-6.72-10.68-10.24-18.52-11.3-1.31-.17-3,.74-4.08-1.71h67.88c-.26,2.67-2.3,1.49-3.46,1.8-6,1.6-8.39,6.7-5.14,11.85,6.83,10.82,13.91,21.49,20.75,32.3,1.74,2.75,2.57,2,4-.2,6.55-10.22,13.22-20.35,19.83-30.53,4.65-7.17,2.72-11.72-5.71-13.53-.81-.18-1.67-.17-1.73-1.74h47.76c.09,2.12-1.38,1.66-2.42,1.73-8.56.55-15.15,4.47-20,11.52-10,14.69-20,29.41-30.22,44-1.74,2.49-1.62,4.12,0,6.58,11.21,17.09,22.46,34.17,33.27,51.52,5.69,9.15,13.34,14.06,24.1,14.13Z"/><path class="cls-3" d="M1348.33,238.28c-2,9.63-3.83,18.69-5.77,27.73-.9,4.19-.71,10-3.36,12.06s-8.27.72-12.58.72q-54.43,0-108.88,0a89.48,89.48,0,0,1-14.91-1.25,37.25,37.25,0,0,1-25.73-16.42,146,146,0,0,1-16-30.37c-2.75-7.32-6-14-13.92-16.67.06-1.57,1-1.53,1.78-1.49,19.27.78,24.44-10.56,26.86-25a33.06,33.06,0,0,0-1.29-15.3c-3.08-9.92-10.06-14.73-20.16-15.82-14.17-1.53-14.16-1.62-14.16,12.15q0,46.46,0,92.91c0,10.35,2.71,13.46,13,15.11.44.07.81.47,1.19.7-.1,2.05-1.62,1.42-2.59,1.43q-27.21.06-54.44,0c-1.08,0-3.11.94-3.12-1.16,0-1.69,1.81-.85,2.82-1,7.42-1.07,11.16-5.16,11.18-12.78q.08-50.94,0-101.89c0-7.76-3.5-11.46-11.25-12.54-1-.14-2.69.52-2.77-1.2-.08-1.91,1.68-1.2,2.63-1.18,25.13.39,50.27-1,75.38.74a52.57,52.57,0,0,1,12.19,2.48c17,5.33,25.62,17.22,25,34.05-.72,17.86-10.81,30-28.16,33.87-.32,1.75,1.32,1.69,2.18,2.2,7.66,4.53,13.28,11,17.76,18.53A209,209,0,0,0,1221.33,268c4.26,5,9.45,8.29,16.26,8.55,8,.31,13.44-4.57,13.45-12.58q.09-51.19,0-102.39c0-7-3.78-11-10.69-12.21-1.22-.21-3.71.82-3.41-1.5.24-1.79,2.55-.87,3.89-.87,22.47-.06,45-.13,67.42,0a105.66,105.66,0,0,0,28.44-3.23v24c0,3,0,6,0,9,0,.81,0,1.82-1,1.94-1.51.16-1.34-1.09-1.44-2,0-.17,0-.34,0-.5-1.71-14.95-7.62-20.2-22.81-20.23-8.33,0-16.65.12-25-.07-2.87-.06-3.61.85-3.59,3.64q.2,23,0,45.95c0,2.84.77,3.7,3.62,3.62,7.15-.2,14.31,0,21.47-.11,9.23-.2,15.07-5.66,16.36-14.88.17-1.25-.73-3.6,1.62-3.41,1.81.15,1,2.19,1,3.36q.09,19.72,0,39.46c0,1.11.91,3.12-1.14,3.17s-1.25-2-1.4-3.13c-1.34-10-7.29-15.45-17.34-15.59-7-.1-14,.06-21-.07-2.35,0-3.17.63-3.15,3.07.09,15.31,0,30.63,0,45.95,0,1.49-.27,3.07,2.11,3,10.31-.34,20.7,1,30.91-.69,14.34-2.43,22.84-12,28.16-24.88.75-1.83,1.49-3.67,2.3-5.48C1346.42,238.65,1346.92,238.65,1348.33,238.28Z"/><path class="cls-3" d="M876.14,207.38a48,48,0,0,1,12.91,4.3c11.78,6.3,17.88,16.22,18.07,29.46.18,13.06-5.55,23.08-17,29.51-10.73,6-22.54,7.93-34.61,8.08-19.31.22-38.62.1-57.93.1q-35,0-69.94,0c-1.67,0-3.5.44-5.07-.57.51-2.34,2.23-1.44,3.32-1.73,5.82-1.59,8.26-5.7,6.13-11.39-2.33-6.22-5.15-12.24-7.66-18.39-.76-1.86-2-2.32-3.86-2.31-13.49.06-27,.09-40.46,0-2.37,0-3.59.78-4.46,2.94-2.18,5.38-4.61,10.66-6.84,16-3.06,7.38-1.11,11.24,6.59,13.25.74.2,1.77-.17,2,.91.19.79-.29,1.26-1.07,1.26h-42.5c-.24-2.35,1-2.09,1.9-2.17,7.87-.72,13.37-5,16.6-11.92Q677.76,209.82,703,154.82c1.73-3.76,2.85-7.79,4.27-11.69.26-.72,0-1.82,1-2,1.26-.24,1.65.85,2.09,1.72s.84,1.82,1.26,2.72q27.87,58.44,55.7,116.92c3.94,8.32,9.64,13.45,19.18,14.47,9.15,1,16-4.17,16.06-13.29q.09-50.7,0-101.4c0-7.86-3.31-11.5-11-12.84-1.11-.19-3.17.67-3-1.46.11-1.61,1.88-.92,2.89-.91,23.13.39,46.28-1,69.39.86a52.3,52.3,0,0,1,21,5.91c11.43,6.22,15.78,16.19,14.74,28.73-1,11.76-6.95,19.8-18.44,23.4C877.53,206.11,877.09,206.67,876.14,207.38Zm-36.1.3c1.66-.28,2.9-.55,4.15-.68,5.69-.58,10.86-2.55,14.25-7.23,7.48-10.31,7-21.72,2.43-32.73-4-9.65-13-11.24-22.52-11.34-3.94,0-4.54,1.25-4.53,4.78.13,33.94.08,67.88.08,101.82,0,7.73,0,7.73,8,7.66,17.21-.17,26.74-7.67,29-23.84,2.84-20-5.67-35.47-27.42-36.66C842.42,209.4,841.09,209.83,840,207.68ZM719.6,235.75l-19.36-45.57c-6.33,14.7-12.22,28.53-18.26,42.3-1.24,2.84-.41,3.33,2.33,3.31C695.78,235.69,707.25,235.75,719.6,235.75Z"/><path class="cls-1" d="M87.86,213.68a111.13,111.13,0,0,1,8.48-42.27c1.22-3,3-4.27,6.27-4.42,16.76-.75,32.7,2.76,48.28,8.54,10.43,3.87,20.82,7.87,31.34,11.49,21.83,7.5,43.17,5.71,64-3.82a180.58,180.58,0,0,0,36-22.21c2.69-2.1,4-2.4,5.79,1.07,4.73,9.14,5,9.12-3.28,15.12a948.57,948.57,0,0,1-171.43,99.41c-3.6,1.61-5.2.74-7.15-2.23A108.91,108.91,0,0,1,87.86,213.68Zm52.74,23.43a15.2,15.2,0,1,0-15.49-14.93A15.23,15.23,0,0,0,140.6,237.11Zm70.74-30.93a8,8,0,0,0-7.69-8.61,8.1,8.1,0,0,0-8.6,7.75,8.5,8.5,0,0,0,7.5,8.47A8.27,8.27,0,0,0,211.34,206.18Z"/><path class="cls-3" d="M1001.59,144.23c12.49.29,23.63,1.64,34.43,5.45,32.23,11.36,47.83,39.43,43.6,72.64s-27.93,54.7-62.22,58.47c-18,2-35.64,1.06-52.4-6.11-24.58-10.51-38-29.35-39.79-56.08-2.91-42.48,24.52-69.53,65.55-73.69C994.73,144.51,998.73,144.41,1001.59,144.23Zm44.76,69c.14-12.1-1.47-23.92-6.6-35-7.36-15.87-19.45-25.22-37.37-25.15s-30.34,9.38-37.07,25.5c-9.45,22.63-9.52,45.78-.17,68.45,6.8,16.51,19.34,26,37.8,25.82,18.27-.15,30.07-10,37.25-26C1045,236.12,1046.47,224.78,1046.35,213.19Z"/><path class="cls-3" d="M512.67,278c1-2.14,2.75-1.21,4.07-1.4,7.85-1.15,12.84-6.63,12.85-14.63q.07-59.93,0-119.86c0-8.33-4.85-13.49-13.27-14.62-1.19-.16-3.34.54-3.3-1.19.05-2.19,2.32-1.17,3.54-1.18q29.72-.12,59.43,0c1.14,0,3.15-.88,3.29,1s-1.94,1.22-3.08,1.38c-8.93,1.21-13.56,6.34-13.56,15.4,0,40.62,0,81.23-.09,121.85,0,3.55.58,5,4.56,4.78,7-.38,14-.1,21-.11,22.59,0,36.34-9.52,44.59-30.66.65-1.66.37-4.13,3.3-4.87.42,2.94-.66,5.48-1.24,8.07-2.44,11-4.91,22.05-7.33,33.08-.53,2.38-1.09,3.94-4.36,3.92-35.78-.16-71.57-.09-107.36-.11C514.74,278.82,513.69,279.1,512.67,278Z"/><path class="cls-2" d="M51.85,204.78c2.67-50,28.71-94.15,81.84-121.21a25.43,25.43,0,0,1,6.48-2.48,12.27,12.27,0,0,1,6.7,23.41A124.49,124.49,0,0,0,121.36,120,119.81,119.81,0,0,0,95.25,278.45c2.63,4.12,2,5.26-2.3,6.51a111.33,111.33,0,0,0-14,5.21c-3.35,1.48-5.11.86-7-2.38C58.88,264.78,51.8,240.18,51.85,204.78Z"/><path class="cls-4" d="M152.16,312.2c51.31-25.22,100.41-53.69,147.13-86.46,3.65,18.51-17.24,56.73-41,74.16C225.37,324,189.77,327.37,152.16,312.2Z"/><path class="cls-4" d="M205.44,177.87a19.7,19.7,0,1,1,19.91-19.33A19.7,19.7,0,0,1,205.44,177.87Z"/><path class="cls-1" d="M206.18,83.49a19.15,19.15,0,0,1-19.48,19.56,19.62,19.62,0,1,1,.12-39.24C197.83,63.82,206.2,72.33,206.18,83.49Z"/><path class="cls-4" d="M166.14,48.36a16.08,16.08,0,0,1-15.77,16.47,16.19,16.19,0,0,1-.51-32.38A15.9,15.9,0,0,1,166.14,48.36Z"/><path class="cls-4" d="M173.35,134.57a13,13,0,1,1-13.09-12.81A12.83,12.83,0,0,1,173.35,134.57Z"/></g></g></svg>